<svg xmlns="http://www.w3.org/2000/svg" xmlns:xlink="http://www.w3.org/1999/xlink" viewBox="0 0 39.964 39.139"><defs><linearGradient id="a" x1=".5" y1=".5" x2="1" y2="1" gradientUnits="objectBoundingBox"><stop offset="0" stop-color="#32b587"/><stop offset="1" stop-color="#3e78ff"/></linearGradient><linearGradient id="b" x1=".5" y1=".5" x2="0" y2="1" xlink:href="#a"/><linearGradient id="c" x1="1" y1="1" x2=".5" y2=".5" xlink:href="#a"/><linearGradient id="d" x1=".5" y1=".5" x2="0" y2="1" gradientUnits="objectBoundingBox"><stop offset="0" stop-color="#3e78ff"/><stop offset="1" stop-color="#32b587"/></linearGradient><linearGradient id="e" x1=".5" x2=".5" y2="1" gradientUnits="objectBoundingBox"><stop offset="0" stop-color="#32b587"/><stop offset="1" stop-color="#3e78ff"/></linearGradient><linearGradient id="f" x1=".5" y1="0" x2=".5" y2="1" xlink:href="#a"/></defs><path d="M98.21 120.392v7.375a6.255 6.255 0 0 1-6.255 6.256h-8.188z" transform="translate(-58.246 -97.845)" fill="url(#a)" fill-rule="evenodd"/><path d="M83.767 120.392l14.443 13.631h-8.188a6.255 6.255 0 0 1-6.255-6.256z" transform="translate(-83.767 -97.845)" fill="url(#b)" fill-rule="evenodd"/><path d="M13.631 0v8.188a6.255 6.255 0 0 1-6.256 6.255H0z" transform="rotate(-90 6.816 6.816)" fill="url(#c)" fill-rule="evenodd"/><path d="M0 0l13.631 14.443H6.256A6.255 6.255 0 0 1 0 8.188z" transform="rotate(90 19.982 19.982)" fill="url(#d)" fill-rule="evenodd"/><path d="M130.417 87.531a6.256 6.256 0 0 1-1.962 4.55l-13.727 12.955a6.255 6.255 0 0 1-8.586 0L92.414 92.081a6.256 6.256 0 0 1-1.962-4.55v-4.836L106.141 97.5a6.255 6.255 0 0 0 8.586 0l15.689-14.806z" transform="translate(-90.452 -82.68)" fill="url(#e)" fill-rule="evenodd"/><path d="M130.417 102.383l-15.689 14.806a6.255 6.255 0 0 1-8.586 0l-15.69-14.806a3.249 3.249 0 0 1 5.479-2.363l10.21 9.636a6.255 6.255 0 0 0 8.586 0l10.21-9.636a3.249 3.249 0 0 1 5.479 2.363z" transform="translate(-90.452 -79.756)" fill="url(#f)" fill-rule="evenodd"/></svg>